<svg width="461" height="426" viewBox="0 0 461 426" fill="none" xmlns="http://www.w3.org/2000/svg">
<rect width="461" height="426" fill="white"/>
<rect x="54" y="337" width="127" height="55" rx="27.5" fill="#2B788B"/>
<path d="M81.008 365.192C80.112 365.192 79.2533 365.075 78.432 364.84C77.6107 364.595 76.9493 364.28 76.448 363.896L77.328 361.944C77.808 362.285 78.3733 362.568 79.024 362.792C79.6853 363.005 80.352 363.112 81.024 363.112C81.536 363.112 81.9467 363.064 82.256 362.968C82.576 362.861 82.8107 362.717 82.96 362.536C83.1093 362.355 83.184 362.147 83.184 361.912C83.184 361.613 83.0667 361.379 82.832 361.208C82.5973 361.027 82.288 360.883 81.904 360.776C81.52 360.659 81.0933 360.552 80.624 360.456C80.1653 360.349 79.7013 360.221 79.232 360.072C78.7733 359.923 78.352 359.731 77.968 359.496C77.584 359.261 77.2693 358.952 77.024 358.568C76.7893 358.184 76.672 357.693 76.672 357.096C76.672 356.456 76.8427 355.875 77.184 355.352C77.536 354.819 78.0587 354.397 78.752 354.088C79.456 353.768 80.336 353.608 81.392 353.608C82.096 353.608 82.7893 353.693 83.472 353.864C84.1547 354.024 84.7573 354.269 85.28 354.6L84.48 356.568C83.9573 356.269 83.4347 356.051 82.912 355.912C82.3893 355.763 81.8773 355.688 81.376 355.688C80.8747 355.688 80.464 355.747 80.144 355.864C79.824 355.981 79.5947 356.136 79.456 356.328C79.3173 356.509 79.248 356.723 79.248 356.968C79.248 357.256 79.3653 357.491 79.6 357.672C79.8347 357.843 80.144 357.981 80.528 358.088C80.912 358.195 81.3333 358.301 81.792 358.408C82.2613 358.515 82.7253 358.637 83.184 358.776C83.6533 358.915 84.08 359.101 84.464 359.336C84.848 359.571 85.1573 359.88 85.392 360.264C85.6373 360.648 85.76 361.133 85.76 361.72C85.76 362.349 85.584 362.925 85.232 363.448C84.88 363.971 84.352 364.392 83.648 364.712C82.9547 365.032 82.0747 365.192 81.008 365.192ZM86.7151 365V356.392H89.2111V365H86.7151ZM87.9631 355.192C87.5045 355.192 87.1311 355.059 86.8431 354.792C86.5551 354.525 86.4111 354.195 86.4111 353.8C86.4111 353.405 86.5551 353.075 86.8431 352.808C87.1311 352.541 87.5045 352.408 87.9631 352.408C88.4218 352.408 88.7951 352.536 89.0831 352.792C89.3711 353.037 89.5151 353.357 89.5151 353.752C89.5151 354.168 89.3711 354.515 89.0831 354.792C88.8058 355.059 88.4325 355.192 87.9631 355.192ZM94.9356 368.232C94.125 368.232 93.341 368.131 92.5836 367.928C91.837 367.736 91.213 367.443 90.7116 367.048L91.7036 365.256C92.0663 365.555 92.525 365.789 93.0796 365.96C93.645 366.141 94.1996 366.232 94.7436 366.232C95.629 366.232 96.269 366.035 96.6636 365.64C97.069 365.245 97.2716 364.659 97.2716 363.88V362.584L97.4316 360.424L97.3996 358.248V356.392H99.7676V363.56C99.7676 365.16 99.3516 366.339 98.5196 367.096C97.6876 367.853 96.493 368.232 94.9356 368.232ZM94.5516 364.584C93.7516 364.584 93.0263 364.413 92.3756 364.072C91.7356 363.72 91.2183 363.235 90.8236 362.616C90.4396 361.987 90.2476 361.256 90.2476 360.424C90.2476 359.581 90.4396 358.851 90.8236 358.232C91.2183 357.603 91.7356 357.117 92.3756 356.776C93.0263 356.435 93.7516 356.264 94.5516 356.264C95.277 356.264 95.917 356.413 96.4716 356.712C97.0263 357 97.4583 357.453 97.7676 358.072C98.077 358.68 98.2316 359.464 98.2316 360.424C98.2316 361.373 98.077 362.157 97.7676 362.776C97.4583 363.384 97.0263 363.837 96.4716 364.136C95.917 364.435 95.277 364.584 94.5516 364.584ZM95.0476 362.536C95.485 362.536 95.8743 362.451 96.2156 362.28C96.557 362.099 96.8236 361.848 97.0156 361.528C97.2076 361.208 97.3036 360.84 97.3036 360.424C97.3036 359.997 97.2076 359.629 97.0156 359.32C96.8236 359 96.557 358.755 96.2156 358.584C95.8743 358.403 95.485 358.312 95.0476 358.312C94.6103 358.312 94.221 358.403 93.8796 358.584C93.5383 358.755 93.2663 359 93.0636 359.32C92.8716 359.629 92.7756 359.997 92.7756 360.424C92.7756 360.84 92.8716 361.208 93.0636 361.528C93.2663 361.848 93.5383 362.099 93.8796 362.28C94.221 362.451 94.6103 362.536 95.0476 362.536ZM106.683 356.264C107.365 356.264 107.973 356.403 108.507 356.68C109.051 356.947 109.477 357.363 109.787 357.928C110.096 358.483 110.251 359.197 110.251 360.072V365H107.755V360.456C107.755 359.763 107.6 359.251 107.291 358.92C106.992 358.589 106.565 358.424 106.011 358.424C105.616 358.424 105.259 358.509 104.939 358.68C104.629 358.84 104.384 359.091 104.203 359.432C104.032 359.773 103.947 360.211 103.947 360.744V365H101.451V356.392H103.835V358.776L103.387 358.056C103.696 357.48 104.139 357.037 104.715 356.728C105.291 356.419 105.947 356.264 106.683 356.264ZM120.916 365.192C119.327 365.192 118.084 364.749 117.188 363.864C116.292 362.979 115.844 361.715 115.844 360.072V353.8H118.436V359.976C118.436 361.043 118.655 361.811 119.092 362.28C119.53 362.749 120.143 362.984 120.932 362.984C121.722 362.984 122.335 362.749 122.773 362.28C123.21 361.811 123.428 361.043 123.428 359.976V353.8H125.988V360.072C125.988 361.715 125.54 362.979 124.644 363.864C123.748 364.749 122.506 365.192 120.916 365.192ZM132.822 365.128C132.097 365.128 131.462 364.968 130.918 364.648C130.374 364.328 129.947 363.843 129.638 363.192C129.339 362.531 129.19 361.699 129.19 360.696C129.19 359.683 129.334 358.851 129.622 358.2C129.91 357.549 130.326 357.064 130.87 356.744C131.414 356.424 132.065 356.264 132.822 356.264C133.633 356.264 134.358 356.451 134.998 356.824C135.649 357.187 136.161 357.699 136.534 358.36C136.918 359.021 137.11 359.8 137.11 360.696C137.11 361.603 136.918 362.387 136.534 363.048C136.161 363.709 135.649 364.221 134.998 364.584C134.358 364.947 133.633 365.128 132.822 365.128ZM127.734 368.104V356.392H130.118V358.152L130.07 360.712L130.23 363.256V368.104H127.734ZM132.39 363.08C132.806 363.08 133.174 362.984 133.494 362.792C133.825 362.6 134.086 362.328 134.278 361.976C134.481 361.613 134.582 361.187 134.582 360.696C134.582 360.195 134.481 359.768 134.278 359.416C134.086 359.064 133.825 358.792 133.494 358.6C133.174 358.408 132.806 358.312 132.39 358.312C131.974 358.312 131.601 358.408 131.27 358.6C130.939 358.792 130.678 359.064 130.486 359.416C130.294 359.768 130.198 360.195 130.198 360.696C130.198 361.187 130.294 361.613 130.486 361.976C130.678 362.328 130.939 362.6 131.27 362.792C131.601 362.984 131.974 363.08 132.39 363.08Z" fill="white"/>
<path d="M48.656 70V47.6H53.84V65.776H65.072V70H48.656ZM74.4347 70.256C72.6001 70.256 70.9681 69.872 69.5387 69.104C68.1307 68.336 67.0107 67.2907 66.1787 65.968C65.3681 64.624 64.9627 63.0987 64.9627 61.392C64.9627 59.664 65.3681 58.1387 66.1787 56.816C67.0107 55.472 68.1307 54.4267 69.5387 53.68C70.9681 52.912 72.6001 52.528 74.4347 52.528C76.2481 52.528 77.8694 52.912 79.2987 53.68C80.7281 54.4267 81.8481 55.4613 82.6588 56.784C83.4694 58.1067 83.8748 59.6427 83.8748 61.392C83.8748 63.0987 83.4694 64.624 82.6588 65.968C81.8481 67.2907 80.7281 68.336 79.2987 69.104C77.8694 69.872 76.2481 70.256 74.4347 70.256ZM74.4347 66.16C75.2667 66.16 76.0134 65.968 76.6748 65.584C77.3361 65.2 77.8588 64.656 78.2428 63.952C78.6268 63.2267 78.8188 62.3733 78.8188 61.392C78.8188 60.3893 78.6268 59.536 78.2428 58.832C77.8588 58.128 77.3361 57.584 76.6748 57.2C76.0134 56.816 75.2667 56.624 74.4347 56.624C73.6027 56.624 72.8561 56.816 72.1947 57.2C71.5334 57.584 71.0001 58.128 70.5947 58.832C70.2107 59.536 70.0187 60.3893 70.0187 61.392C70.0187 62.3733 70.2107 63.2267 70.5947 63.952C71.0001 64.656 71.5334 65.2 72.1947 65.584C72.8561 65.968 73.6027 66.16 74.4347 66.16ZM94.0275 76.464C92.4062 76.464 90.8382 76.2613 89.3235 75.856C87.8302 75.472 86.5822 74.8853 85.5795 74.096L87.5635 70.512C88.2888 71.1093 89.2062 71.5787 90.3155 71.92C91.4462 72.2827 92.5555 72.464 93.6435 72.464C95.4142 72.464 96.6942 72.0693 97.4835 71.28C98.2942 70.4907 98.6995 69.3173 98.6995 67.76V65.168L99.0195 60.848L98.9555 56.496V52.784H103.691V67.12C103.691 70.32 102.859 72.6773 101.195 74.192C99.5315 75.7067 97.1422 76.464 94.0275 76.464ZM93.2595 69.168C91.6595 69.168 90.2088 68.8267 88.9075 68.144C87.6275 67.44 86.5928 66.4693 85.8035 65.232C85.0355 63.9733 84.6515 62.512 84.6515 60.848C84.6515 59.1627 85.0355 57.7013 85.8035 56.464C86.5928 55.2053 87.6275 54.2347 88.9075 53.552C90.2088 52.8693 91.6595 52.528 93.2595 52.528C94.7102 52.528 95.9902 52.8267 97.0995 53.424C98.2088 54 99.0728 54.9067 99.6915 56.144C100.31 57.36 100.619 58.928 100.619 60.848C100.619 62.7467 100.31 64.3147 99.6915 65.552C99.0728 66.768 98.2088 67.6747 97.0995 68.272C95.9902 68.8693 94.7102 69.168 93.2595 69.168ZM94.2515 65.072C95.1262 65.072 95.9048 64.9013 96.5875 64.56C97.2702 64.1973 97.8035 63.696 98.1875 63.056C98.5715 62.416 98.7635 61.68 98.7635 60.848C98.7635 59.9947 98.5715 59.2587 98.1875 58.64C97.8035 58 97.2702 57.5093 96.5875 57.168C95.9048 56.8053 95.1262 56.624 94.2515 56.624C93.3768 56.624 92.5982 56.8053 91.9155 57.168C91.2328 57.5093 90.6888 58 90.2835 58.64C89.8995 59.2587 89.7075 59.9947 89.7075 60.848C89.7075 61.68 89.8995 62.416 90.2835 63.056C90.6888 63.696 91.2328 64.1973 91.9155 64.56C92.5982 64.9013 93.3768 65.072 94.2515 65.072ZM107.058 70V52.784H112.05V70H107.058ZM109.554 50.384C108.636 50.384 107.89 50.1173 107.314 49.584C106.738 49.0507 106.45 48.3893 106.45 47.6C106.45 46.8107 106.738 46.1493 107.314 45.616C107.89 45.0827 108.636 44.816 109.554 44.816C110.471 44.816 111.218 45.072 111.794 45.584C112.37 46.0747 112.658 46.7147 112.658 47.504C112.658 48.336 112.37 49.0293 111.794 49.584C111.239 50.1173 110.492 50.384 109.554 50.384ZM125.867 52.528C127.232 52.528 128.448 52.8053 129.515 53.36C130.603 53.8933 131.456 54.7253 132.075 55.856C132.693 56.9653 133.003 58.3947 133.003 60.144V70H128.011V60.912C128.011 59.5253 127.701 58.5013 127.083 57.84C126.485 57.1787 125.632 56.848 124.523 56.848C123.733 56.848 123.019 57.0187 122.379 57.36C121.76 57.68 121.269 58.1813 120.907 58.864C120.565 59.5467 120.395 60.4213 120.395 61.488V70H115.403V52.784H120.171V57.552L119.275 56.112C119.893 54.96 120.779 54.0747 121.931 53.456C123.083 52.8373 124.395 52.528 125.867 52.528ZM144.638 70V52.4C144.638 50.4587 145.214 48.912 146.366 47.76C147.518 46.5867 149.161 46 151.294 46C152.02 46 152.713 46.0747 153.374 46.224C154.057 46.3733 154.633 46.608 155.102 46.928L153.79 50.544C153.513 50.352 153.204 50.2027 152.862 50.096C152.521 49.9893 152.158 49.936 151.774 49.936C151.049 49.936 150.484 50.1493 150.078 50.576C149.694 50.9813 149.502 51.6 149.502 52.432V54.032L149.63 56.176V70H144.638ZM141.982 57.008V53.168H153.918V57.008H141.982ZM163.099 70.256C161.264 70.256 159.632 69.872 158.203 69.104C156.795 68.336 155.675 67.2907 154.843 65.968C154.032 64.624 153.627 63.0987 153.627 61.392C153.627 59.664 154.032 58.1387 154.843 56.816C155.675 55.472 156.795 54.4267 158.203 53.68C159.632 52.912 161.264 52.528 163.099 52.528C164.912 52.528 166.533 52.912 167.963 53.68C169.392 54.4267 170.512 55.4613 171.323 56.784C172.133 58.1067 172.539 59.6427 172.539 61.392C172.539 63.0987 172.133 64.624 171.323 65.968C170.512 67.2907 169.392 68.336 167.963 69.104C166.533 69.872 164.912 70.256 163.099 70.256ZM163.099 66.16C163.931 66.16 164.677 65.968 165.339 65.584C166 65.2 166.523 64.656 166.907 63.952C167.291 63.2267 167.483 62.3733 167.483 61.392C167.483 60.3893 167.291 59.536 166.907 58.832C166.523 58.128 166 57.584 165.339 57.2C164.677 56.816 163.931 56.624 163.099 56.624C162.267 56.624 161.52 56.816 160.859 57.2C160.197 57.584 159.664 58.128 159.259 58.832C158.875 59.536 158.683 60.3893 158.683 61.392C158.683 62.3733 158.875 63.2267 159.259 63.952C159.664 64.656 160.197 65.2 160.859 65.584C161.52 65.968 162.267 66.16 163.099 66.16ZM174.595 70V52.784H179.363V57.648L178.691 56.24C179.203 55.024 180.025 54.1067 181.155 53.488C182.286 52.848 183.662 52.528 185.283 52.528V57.136C185.07 57.1147 184.878 57.104 184.707 57.104C184.537 57.0827 184.355 57.072 184.163 57.072C182.798 57.072 181.689 57.4667 180.835 58.256C180.003 59.024 179.587 60.2293 179.587 61.872V70H174.595ZM209.051 52.528C210.416 52.528 211.621 52.8053 212.667 53.36C213.733 53.8933 214.565 54.7253 215.163 55.856C215.781 56.9653 216.091 58.3947 216.091 60.144V70H211.099V60.912C211.099 59.5253 210.811 58.5013 210.235 57.84C209.659 57.1787 208.848 56.848 207.803 56.848C207.077 56.848 206.427 57.0187 205.851 57.36C205.275 57.68 204.827 58.1707 204.507 58.832C204.187 59.4933 204.027 60.336 204.027 61.36V70H199.035V60.912C199.035 59.5253 198.747 58.5013 198.171 57.84C197.616 57.1787 196.816 56.848 195.771 56.848C195.045 56.848 194.395 57.0187 193.819 57.36C193.243 57.68 192.795 58.1707 192.475 58.832C192.155 59.4933 191.995 60.336 191.995 61.36V70H187.003V52.784H191.771V57.488L190.875 56.112C191.472 54.9387 192.315 54.0533 193.403 53.456C194.512 52.8373 195.771 52.528 197.179 52.528C198.757 52.528 200.133 52.9333 201.307 53.744C202.501 54.5333 203.291 55.7493 203.675 57.392L201.915 56.912C202.491 55.568 203.408 54.5013 204.667 53.712C205.947 52.9227 207.408 52.528 209.051 52.528Z" fill="#2B788B"/>
<rect x="35" y="125" width="363" height="70" rx="35" fill="#C3DCE3"/>
<path d="M77.712 152.312H83.104V154.328H77.712V152.312ZM77.904 156.92H84V159H75.328V147.8H83.792V149.88H77.904V156.92ZM96.2704 150.264C96.953 150.264 97.5557 150.403 98.0784 150.68C98.6117 150.947 99.0277 151.363 99.3264 151.928C99.6357 152.483 99.7904 153.197 99.7904 154.072V159H97.2944V154.456C97.2944 153.763 97.1504 153.251 96.8624 152.92C96.5744 152.589 96.169 152.424 95.6464 152.424C95.2837 152.424 94.9584 152.509 94.6704 152.68C94.3824 152.84 94.1584 153.085 93.9984 153.416C93.8384 153.747 93.7584 154.168 93.7584 154.68V159H91.2624V154.456C91.2624 153.763 91.1184 153.251 90.8304 152.92C90.553 152.589 90.153 152.424 89.6304 152.424C89.2677 152.424 88.9424 152.509 88.6544 152.68C88.3664 152.84 88.1424 153.085 87.9824 153.416C87.8224 153.747 87.7424 154.168 87.7424 154.68V159H85.2464V150.392H87.6304V152.744L87.1824 152.056C87.481 151.469 87.9024 151.027 88.4464 150.728C89.001 150.419 89.6304 150.264 90.3344 150.264C91.1237 150.264 91.8117 150.467 92.3984 150.872C92.9957 151.267 93.3904 151.875 93.5824 152.696L92.7024 152.456C92.9904 151.784 93.449 151.251 94.0784 150.856C94.7184 150.461 95.449 150.264 96.2704 150.264ZM106.668 159V157.32L106.508 156.952V153.944C106.508 153.411 106.342 152.995 106.012 152.696C105.692 152.397 105.196 152.248 104.524 152.248C104.065 152.248 103.612 152.323 103.164 152.472C102.726 152.611 102.353 152.803 102.044 153.048L101.148 151.304C101.617 150.973 102.182 150.717 102.844 150.536C103.505 150.355 104.177 150.264 104.86 150.264C106.172 150.264 107.19 150.573 107.916 151.192C108.641 151.811 109.004 152.776 109.004 154.088V159H106.668ZM104.044 159.128C103.372 159.128 102.796 159.016 102.316 158.792C101.836 158.557 101.468 158.243 101.212 157.848C100.956 157.453 100.828 157.011 100.828 156.52C100.828 156.008 100.95 155.56 101.196 155.176C101.452 154.792 101.852 154.493 102.396 154.28C102.94 154.056 103.649 153.944 104.524 153.944H106.812V155.4H104.796C104.209 155.4 103.804 155.496 103.58 155.688C103.366 155.88 103.26 156.12 103.26 156.408C103.26 156.728 103.382 156.984 103.628 157.176C103.884 157.357 104.23 157.448 104.668 157.448C105.084 157.448 105.457 157.352 105.788 157.16C106.118 156.957 106.358 156.664 106.508 156.28L106.892 157.432C106.71 157.987 106.38 158.408 105.9 158.696C105.42 158.984 104.801 159.128 104.044 159.128ZM110.623 159V150.392H113.119V159H110.623ZM111.871 149.192C111.412 149.192 111.039 149.059 110.751 148.792C110.463 148.525 110.319 148.195 110.319 147.8C110.319 147.405 110.463 147.075 110.751 146.808C111.039 146.541 111.412 146.408 111.871 146.408C112.329 146.408 112.703 146.536 112.991 146.792C113.279 147.037 113.423 147.357 113.423 147.752C113.423 148.168 113.279 148.515 112.991 148.792C112.713 149.059 112.34 149.192 111.871 149.192ZM114.795 159V147.128H117.291V159H114.795Z" fill="#2B788B"/>
<rect x="35" y="231" width="363" height="71" rx="35.5" fill="#C3DCE3"/>
<path d="M75.328 265V253.8H80.176C81.1787 253.8 82.0427 253.965 82.768 254.296C83.4933 254.616 84.0533 255.08 84.448 255.688C84.8427 256.296 85.04 257.021 85.04 257.864C85.04 258.696 84.8427 259.416 84.448 260.024C84.0533 260.632 83.4933 261.101 82.768 261.432C82.0427 261.752 81.1787 261.912 80.176 261.912H76.768L77.92 260.744V265H75.328ZM77.92 261.032L76.768 259.8H80.032C80.832 259.8 81.4293 259.629 81.824 259.288C82.2187 258.947 82.416 258.472 82.416 257.864C82.416 257.245 82.2187 256.765 81.824 256.424C81.4293 256.083 80.832 255.912 80.032 255.912H76.768L77.92 254.68V261.032ZM91.2764 265V263.32L91.1164 262.952V259.944C91.1164 259.411 90.951 258.995 90.6204 258.696C90.3004 258.397 89.8044 258.248 89.1324 258.248C88.6737 258.248 88.2204 258.323 87.7724 258.472C87.335 258.611 86.9617 258.803 86.6524 259.048L85.7564 257.304C86.2257 256.973 86.791 256.717 87.4524 256.536C88.1137 256.355 88.7857 256.264 89.4684 256.264C90.7804 256.264 91.799 256.573 92.5244 257.192C93.2497 257.811 93.6124 258.776 93.6124 260.088V265H91.2764ZM88.6524 265.128C87.9804 265.128 87.4044 265.016 86.9244 264.792C86.4444 264.557 86.0764 264.243 85.8204 263.848C85.5644 263.453 85.4364 263.011 85.4364 262.52C85.4364 262.008 85.559 261.56 85.8044 261.176C86.0604 260.792 86.4604 260.493 87.0044 260.28C87.5484 260.056 88.2577 259.944 89.1324 259.944H91.4204V261.4H89.4044C88.8177 261.4 88.4124 261.496 88.1884 261.688C87.975 261.88 87.8684 262.12 87.8684 262.408C87.8684 262.728 87.991 262.984 88.2364 263.176C88.4924 263.357 88.839 263.448 89.2764 263.448C89.6924 263.448 90.0657 263.352 90.3964 263.16C90.727 262.957 90.967 262.664 91.1164 262.28L91.5004 263.432C91.319 263.987 90.9884 264.408 90.5084 264.696C90.0284 264.984 89.4097 265.128 88.6524 265.128ZM98.1274 265.128C97.3914 265.128 96.682 265.043 95.9994 264.872C95.3274 264.691 94.794 264.467 94.3994 264.2L95.2314 262.408C95.626 262.653 96.09 262.856 96.6234 263.016C97.1674 263.165 97.7007 263.24 98.2234 263.24C98.7994 263.24 99.2047 263.171 99.4394 263.032C99.6847 262.893 99.8074 262.701 99.8074 262.456C99.8074 262.253 99.7114 262.104 99.5194 262.008C99.338 261.901 99.0927 261.821 98.7834 261.768C98.474 261.715 98.1327 261.661 97.7594 261.608C97.3967 261.555 97.0287 261.485 96.6554 261.4C96.282 261.304 95.9407 261.165 95.6314 260.984C95.322 260.803 95.0714 260.557 94.8794 260.248C94.698 259.939 94.6074 259.539 94.6074 259.048C94.6074 258.504 94.762 258.024 95.0714 257.608C95.3914 257.192 95.85 256.867 96.4474 256.632C97.0447 256.387 97.7594 256.264 98.5914 256.264C99.178 256.264 99.7754 256.328 100.383 256.456C100.991 256.584 101.498 256.771 101.903 257.016L101.071 258.792C100.655 258.547 100.234 258.381 99.8074 258.296C99.3914 258.2 98.986 258.152 98.5914 258.152C98.0367 258.152 97.6314 258.227 97.3754 258.376C97.1194 258.525 96.9914 258.717 96.9914 258.952C96.9914 259.165 97.082 259.325 97.2634 259.432C97.4554 259.539 97.706 259.624 98.0154 259.688C98.3247 259.752 98.6607 259.811 99.0234 259.864C99.3967 259.907 99.77 259.976 100.143 260.072C100.517 260.168 100.853 260.307 101.151 260.488C101.461 260.659 101.711 260.899 101.903 261.208C102.095 261.507 102.191 261.901 102.191 262.392C102.191 262.925 102.031 263.4 101.711 263.816C101.391 264.221 100.927 264.541 100.319 264.776C99.722 265.011 98.9914 265.128 98.1274 265.128ZM105.987 265.128C105.251 265.128 104.542 265.043 103.859 264.872C103.187 264.691 102.654 264.467 102.259 264.2L103.091 262.408C103.486 262.653 103.95 262.856 104.483 263.016C105.027 263.165 105.561 263.24 106.083 263.24C106.659 263.24 107.065 263.171 107.299 263.032C107.545 262.893 107.667 262.701 107.667 262.456C107.667 262.253 107.571 262.104 107.379 262.008C107.198 261.901 106.953 261.821 106.643 261.768C106.334 261.715 105.993 261.661 105.619 261.608C105.257 261.555 104.889 261.485 104.515 261.4C104.142 261.304 103.801 261.165 103.491 260.984C103.182 260.803 102.931 260.557 102.739 260.248C102.558 259.939 102.467 259.539 102.467 259.048C102.467 258.504 102.622 258.024 102.931 257.608C103.251 257.192 103.71 256.867 104.307 256.632C104.905 256.387 105.619 256.264 106.451 256.264C107.038 256.264 107.635 256.328 108.243 256.456C108.851 256.584 109.358 256.771 109.763 257.016L108.931 258.792C108.515 258.547 108.094 258.381 107.667 258.296C107.251 258.2 106.846 258.152 106.451 258.152C105.897 258.152 105.491 258.227 105.235 258.376C104.979 258.525 104.851 258.717 104.851 258.952C104.851 259.165 104.942 259.325 105.123 259.432C105.315 259.539 105.566 259.624 105.875 259.688C106.185 259.752 106.521 259.811 106.883 259.864C107.257 259.907 107.63 259.976 108.003 260.072C108.377 260.168 108.713 260.307 109.011 260.488C109.321 260.659 109.571 260.899 109.763 261.208C109.955 261.507 110.051 261.901 110.051 262.392C110.051 262.925 109.891 263.4 109.571 263.816C109.251 264.221 108.787 264.541 108.179 264.776C107.582 265.011 106.851 265.128 105.987 265.128ZM112.763 265L109.659 256.392H112.011L114.587 263.8H113.467L116.155 256.392H118.267L120.875 263.8H119.755L122.411 256.392H124.619L121.499 265H119.083L116.795 258.648H117.531L115.163 265H112.763ZM129.001 265.128C128.084 265.128 127.268 264.936 126.553 264.552C125.849 264.168 125.289 263.645 124.873 262.984C124.468 262.312 124.265 261.549 124.265 260.696C124.265 259.832 124.468 259.069 124.873 258.408C125.289 257.736 125.849 257.213 126.553 256.84C127.268 256.456 128.084 256.264 129.001 256.264C129.908 256.264 130.718 256.456 131.433 256.84C132.148 257.213 132.708 257.731 133.113 258.392C133.518 259.053 133.721 259.821 133.721 260.696C133.721 261.549 133.518 262.312 133.113 262.984C132.708 263.645 132.148 264.168 131.433 264.552C130.718 264.936 129.908 265.128 129.001 265.128ZM129.001 263.08C129.417 263.08 129.79 262.984 130.121 262.792C130.452 262.6 130.713 262.328 130.905 261.976C131.097 261.613 131.193 261.187 131.193 260.696C131.193 260.195 131.097 259.768 130.905 259.416C130.713 259.064 130.452 258.792 130.121 258.6C129.79 258.408 129.417 258.312 129.001 258.312C128.585 258.312 128.212 258.408 127.881 258.6C127.55 258.792 127.284 259.064 127.081 259.416C126.889 259.768 126.793 260.195 126.793 260.696C126.793 261.187 126.889 261.613 127.081 261.976C127.284 262.328 127.55 262.6 127.881 262.792C128.212 262.984 128.585 263.08 129.001 263.08ZM134.749 265V256.392H137.134V258.824L136.797 258.12C137.053 257.512 137.464 257.053 138.03 256.744C138.595 256.424 139.283 256.264 140.094 256.264V258.568C139.987 258.557 139.891 258.552 139.806 258.552C139.72 258.541 139.63 258.536 139.534 258.536C138.851 258.536 138.296 258.733 137.87 259.128C137.454 259.512 137.246 260.115 137.246 260.936V265H134.749ZM144.571 265.128C143.76 265.128 143.03 264.947 142.379 264.584C141.728 264.211 141.211 263.693 140.827 263.032C140.454 262.371 140.267 261.592 140.267 260.696C140.267 259.789 140.454 259.005 140.827 258.344C141.211 257.683 141.728 257.171 142.379 256.808C143.03 256.445 143.76 256.264 144.571 256.264C145.296 256.264 145.931 256.424 146.475 256.744C147.019 257.064 147.44 257.549 147.739 258.2C148.038 258.851 148.187 259.683 148.187 260.696C148.187 261.699 148.043 262.531 147.755 263.192C147.467 263.843 147.051 264.328 146.507 264.648C145.974 264.968 145.328 265.128 144.571 265.128ZM145.003 263.08C145.408 263.08 145.776 262.984 146.107 262.792C146.438 262.6 146.699 262.328 146.891 261.976C147.094 261.613 147.195 261.187 147.195 260.696C147.195 260.195 147.094 259.768 146.891 259.416C146.699 259.064 146.438 258.792 146.107 258.6C145.776 258.408 145.408 258.312 145.003 258.312C144.587 258.312 144.214 258.408 143.883 258.6C143.552 258.792 143.286 259.064 143.083 259.416C142.891 259.768 142.795 260.195 142.795 260.696C142.795 261.187 142.891 261.613 143.083 261.976C143.286 262.328 143.552 262.6 143.883 262.792C144.214 262.984 144.587 263.08 145.003 263.08ZM147.259 265V263.24L147.307 260.68L147.147 258.136V253.128H149.643V265H147.259Z" fill="#2B788B"/>
</svg>
