<svg width="1921" height="104" viewBox="0 0 1921 104" fill="none" xmlns="http://www.w3.org/2000/svg">
<rect width="1920" height="104" transform="translate(0.0476074)" fill="#F6F5F4"/>
<path d="M109.752 62.036C109.152 62.036 108.596 61.928 108.084 61.712C107.572 61.496 107.124 61.196 106.74 60.812C106.356 60.42 106.056 59.968 105.84 59.456C105.632 58.944 105.528 58.392 105.528 57.8C105.528 57.208 105.636 56.656 105.852 56.144C106.068 55.632 106.368 55.184 106.752 54.8C107.136 54.408 107.584 54.104 108.096 53.888C108.616 53.672 109.176 53.564 109.776 53.564C110.376 53.564 110.932 53.672 111.444 53.888C111.964 54.096 112.412 54.392 112.788 54.776C113.172 55.16 113.468 55.608 113.676 56.12C113.892 56.624 114 57.176 114 57.776C114 58.376 113.892 58.936 113.676 59.456C113.46 59.968 113.156 60.42 112.764 60.812C112.38 61.196 111.932 61.496 111.42 61.712C110.908 61.928 110.352 62.036 109.752 62.036ZM109.74 61.376C110.252 61.376 110.724 61.284 111.156 61.1C111.588 60.916 111.964 60.664 112.284 60.344C112.612 60.016 112.864 59.632 113.04 59.192C113.216 58.752 113.304 58.28 113.304 57.776C113.304 57.272 113.216 56.804 113.04 56.372C112.864 55.94 112.616 55.564 112.296 55.244C111.984 54.924 111.612 54.676 111.18 54.5C110.756 54.316 110.288 54.224 109.776 54.224C109.264 54.224 108.788 54.316 108.348 54.5C107.916 54.676 107.54 54.928 107.22 55.256C106.908 55.584 106.66 55.964 106.476 56.396C106.3 56.828 106.212 57.296 106.212 57.8C106.212 58.304 106.3 58.772 106.476 59.204C106.652 59.636 106.9 60.016 107.22 60.344C107.54 60.672 107.916 60.928 108.348 61.112C108.78 61.288 109.244 61.376 109.74 61.376ZM109.884 60.248C109.396 60.248 108.96 60.144 108.576 59.936C108.192 59.728 107.892 59.44 107.676 59.072C107.46 58.704 107.352 58.28 107.352 57.8C107.352 57.32 107.46 56.896 107.676 56.528C107.892 56.16 108.192 55.872 108.576 55.664C108.96 55.456 109.396 55.352 109.884 55.352C110.34 55.352 110.74 55.448 111.084 55.64C111.436 55.824 111.704 56.076 111.888 56.396L111.012 56.972C110.876 56.764 110.712 56.612 110.52 56.516C110.328 56.42 110.112 56.372 109.872 56.372C109.616 56.372 109.384 56.432 109.176 56.552C108.976 56.664 108.812 56.828 108.684 57.044C108.564 57.252 108.504 57.504 108.504 57.8C108.504 58.096 108.564 58.352 108.684 58.568C108.812 58.776 108.976 58.94 109.176 59.06C109.384 59.172 109.616 59.228 109.872 59.228C110.112 59.228 110.328 59.18 110.52 59.084C110.712 58.988 110.876 58.836 111.012 58.628L111.888 59.18C111.704 59.508 111.436 59.768 111.084 59.96C110.74 60.152 110.34 60.248 109.884 60.248ZM114.83 62V60.956L118.166 57.788C118.446 57.524 118.654 57.292 118.79 57.092C118.926 56.892 119.014 56.708 119.054 56.54C119.102 56.364 119.126 56.2 119.126 56.048C119.126 55.664 118.994 55.368 118.73 55.16C118.466 54.944 118.078 54.836 117.566 54.836C117.158 54.836 116.786 54.908 116.45 55.052C116.122 55.196 115.838 55.416 115.598 55.712L114.506 54.872C114.834 54.432 115.274 54.092 115.826 53.852C116.386 53.604 117.01 53.48 117.698 53.48C118.306 53.48 118.834 53.58 119.282 53.78C119.738 53.972 120.086 54.248 120.326 54.608C120.574 54.968 120.698 55.396 120.698 55.892C120.698 56.164 120.662 56.436 120.59 56.708C120.518 56.972 120.382 57.252 120.182 57.548C119.982 57.844 119.69 58.176 119.306 58.544L116.438 61.268L116.114 60.68H121.022V62H114.83ZM125.427 62.12C124.763 62.12 124.163 61.952 123.627 61.616C123.099 61.28 122.683 60.792 122.379 60.152C122.075 59.504 121.923 58.72 121.923 57.8C121.923 56.88 122.075 56.1 122.379 55.46C122.683 54.812 123.099 54.32 123.627 53.984C124.163 53.648 124.763 53.48 125.427 53.48C126.099 53.48 126.699 53.648 127.227 53.984C127.755 54.32 128.171 54.812 128.475 55.46C128.787 56.1 128.943 56.88 128.943 57.8C128.943 58.72 128.787 59.504 128.475 60.152C128.171 60.792 127.755 61.28 127.227 61.616C126.699 61.952 126.099 62.12 125.427 62.12ZM125.427 60.764C125.819 60.764 126.159 60.66 126.447 60.452C126.735 60.236 126.959 59.908 127.119 59.468C127.287 59.028 127.371 58.472 127.371 57.8C127.371 57.12 127.287 56.564 127.119 56.132C126.959 55.692 126.735 55.368 126.447 55.16C126.159 54.944 125.819 54.836 125.427 54.836C125.051 54.836 124.715 54.944 124.419 55.16C124.131 55.368 123.903 55.692 123.735 56.132C123.575 56.564 123.495 57.12 123.495 57.8C123.495 58.472 123.575 59.028 123.735 59.468C123.903 59.908 124.131 60.236 124.419 60.452C124.715 60.66 125.051 60.764 125.427 60.764ZM129.877 62V60.956L133.213 57.788C133.493 57.524 133.701 57.292 133.837 57.092C133.973 56.892 134.061 56.708 134.101 56.54C134.149 56.364 134.173 56.2 134.173 56.048C134.173 55.664 134.041 55.368 133.777 55.16C133.513 54.944 133.125 54.836 132.613 54.836C132.205 54.836 131.833 54.908 131.497 55.052C131.169 55.196 130.885 55.416 130.645 55.712L129.553 54.872C129.881 54.432 130.321 54.092 130.873 53.852C131.433 53.604 132.057 53.48 132.745 53.48C133.353 53.48 133.881 53.58 134.329 53.78C134.785 53.972 135.133 54.248 135.373 54.608C135.621 54.968 135.745 55.396 135.745 55.892C135.745 56.164 135.709 56.436 135.637 56.708C135.565 56.972 135.429 57.252 135.229 57.548C135.029 57.844 134.737 58.176 134.353 58.544L131.485 61.268L131.161 60.68H136.069V62H129.877ZM138.313 62V54.2L138.997 54.908H136.537V53.6H139.873V62H138.313ZM149.38 62.12C148.724 62.12 148.12 62.016 147.568 61.808C147.024 61.592 146.548 61.292 146.14 60.908C145.732 60.516 145.416 60.056 145.192 59.528C144.968 59 144.856 58.424 144.856 57.8C144.856 57.176 144.968 56.6 145.192 56.072C145.416 55.544 145.732 55.088 146.14 54.704C146.556 54.312 147.04 54.012 147.592 53.804C148.144 53.588 148.748 53.48 149.404 53.48C150.116 53.48 150.756 53.596 151.324 53.828C151.9 54.06 152.384 54.4 152.776 54.848L151.792 55.808C151.464 55.48 151.108 55.24 150.724 55.088C150.348 54.928 149.932 54.848 149.476 54.848C149.036 54.848 148.628 54.92 148.252 55.064C147.876 55.208 147.552 55.412 147.28 55.676C147.008 55.94 146.796 56.252 146.644 56.612C146.5 56.972 146.428 57.368 146.428 57.8C146.428 58.224 146.5 58.616 146.644 58.976C146.796 59.336 147.008 59.652 147.28 59.924C147.552 60.188 147.872 60.392 148.24 60.536C148.608 60.68 149.016 60.752 149.464 60.752C149.88 60.752 150.28 60.688 150.664 60.56C151.056 60.424 151.428 60.2 151.78 59.888L152.668 61.052C152.228 61.404 151.716 61.672 151.132 61.856C150.556 62.032 149.972 62.12 149.38 62.12ZM151.192 60.848V57.704H152.668V61.052L151.192 60.848ZM154.582 62V53.096H156.082V62H154.582ZM160.93 62.084C160.274 62.084 159.69 61.944 159.178 61.664C158.666 61.376 158.262 60.984 157.966 60.488C157.67 59.992 157.522 59.428 157.522 58.796C157.522 58.156 157.67 57.592 157.966 57.104C158.262 56.608 158.666 56.22 159.178 55.94C159.69 55.66 160.274 55.52 160.93 55.52C161.594 55.52 162.182 55.66 162.694 55.94C163.214 56.22 163.618 56.604 163.906 57.092C164.202 57.58 164.35 58.148 164.35 58.796C164.35 59.428 164.202 59.992 163.906 60.488C163.618 60.984 163.214 61.376 162.694 61.664C162.182 61.944 161.594 62.084 160.93 62.084ZM160.93 60.8C161.298 60.8 161.626 60.72 161.914 60.56C162.202 60.4 162.426 60.168 162.586 59.864C162.754 59.56 162.838 59.204 162.838 58.796C162.838 58.38 162.754 58.024 162.586 57.728C162.426 57.424 162.202 57.192 161.914 57.032C161.626 56.872 161.302 56.792 160.942 56.792C160.574 56.792 160.246 56.872 159.958 57.032C159.678 57.192 159.454 57.424 159.286 57.728C159.118 58.024 159.034 58.38 159.034 58.796C159.034 59.204 159.118 59.56 159.286 59.864C159.454 60.168 159.678 60.4 159.958 60.56C160.246 60.72 160.57 60.8 160.93 60.8ZM169.337 62.084C168.793 62.084 168.309 61.964 167.885 61.724C167.461 61.484 167.125 61.124 166.877 60.644C166.637 60.156 166.517 59.54 166.517 58.796C166.517 58.044 166.641 57.428 166.889 56.948C167.145 56.468 167.485 56.112 167.909 55.88C168.341 55.64 168.817 55.52 169.337 55.52C169.969 55.52 170.525 55.656 171.005 55.928C171.493 56.2 171.877 56.58 172.157 57.068C172.445 57.556 172.589 58.132 172.589 58.796C172.589 59.46 172.445 60.036 172.157 60.524C171.877 61.012 171.493 61.396 171.005 61.676C170.525 61.948 169.969 62.084 169.337 62.084ZM165.785 62V53.096H167.285V57.08L167.165 58.784L167.213 60.488V62H165.785ZM169.169 60.8C169.529 60.8 169.849 60.72 170.129 60.56C170.417 60.4 170.645 60.168 170.813 59.864C170.981 59.56 171.065 59.204 171.065 58.796C171.065 58.38 170.981 58.024 170.813 57.728C170.645 57.424 170.417 57.192 170.129 57.032C169.849 56.872 169.529 56.792 169.169 56.792C168.809 56.792 168.485 56.872 168.197 57.032C167.909 57.192 167.681 57.424 167.513 57.728C167.345 58.024 167.261 58.38 167.261 58.796C167.261 59.204 167.345 59.56 167.513 59.864C167.681 60.168 167.909 60.4 168.197 60.56C168.485 60.72 168.809 60.8 169.169 60.8ZM177.877 62V60.704L177.793 60.428V58.16C177.793 57.72 177.661 57.38 177.397 57.14C177.133 56.892 176.733 56.768 176.197 56.768C175.837 56.768 175.481 56.824 175.129 56.936C174.785 57.048 174.493 57.204 174.253 57.404L173.665 56.312C174.009 56.048 174.417 55.852 174.889 55.724C175.369 55.588 175.865 55.52 176.377 55.52C177.305 55.52 178.021 55.744 178.525 56.192C179.037 56.632 179.293 57.316 179.293 58.244V62H177.877ZM175.861 62.084C175.381 62.084 174.961 62.004 174.601 61.844C174.241 61.676 173.961 61.448 173.761 61.16C173.569 60.864 173.473 60.532 173.473 60.164C173.473 59.804 173.557 59.48 173.725 59.192C173.901 58.904 174.185 58.676 174.577 58.508C174.969 58.34 175.489 58.256 176.137 58.256H177.997V59.252H176.245C175.733 59.252 175.389 59.336 175.213 59.504C175.037 59.664 174.949 59.864 174.949 60.104C174.949 60.376 175.057 60.592 175.273 60.752C175.489 60.912 175.789 60.992 176.173 60.992C176.541 60.992 176.869 60.908 177.157 60.74C177.453 60.572 177.665 60.324 177.793 59.996L178.045 60.896C177.901 61.272 177.641 61.564 177.265 61.772C176.897 61.98 176.429 62.084 175.861 62.084ZM181.218 62V53.096H182.718V62H181.218ZM186.535 62V54.92H183.751V53.6H190.879V54.92H188.095V62H186.535ZM195.514 62V60.704L195.43 60.428V58.16C195.43 57.72 195.298 57.38 195.034 57.14C194.77 56.892 194.37 56.768 193.834 56.768C193.474 56.768 193.118 56.824 192.766 56.936C192.422 57.048 192.13 57.204 191.89 57.404L191.302 56.312C191.646 56.048 192.054 55.852 192.526 55.724C193.006 55.588 193.502 55.52 194.014 55.52C194.942 55.52 195.658 55.744 196.162 56.192C196.674 56.632 196.93 57.316 196.93 58.244V62H195.514ZM193.498 62.084C193.018 62.084 192.598 62.004 192.238 61.844C191.878 61.676 191.598 61.448 191.398 61.16C191.206 60.864 191.11 60.532 191.11 60.164C191.11 59.804 191.194 59.48 191.362 59.192C191.538 58.904 191.822 58.676 192.214 58.508C192.606 58.34 193.126 58.256 193.774 58.256H195.634V59.252H193.882C193.37 59.252 193.026 59.336 192.85 59.504C192.674 59.664 192.586 59.864 192.586 60.104C192.586 60.376 192.694 60.592 192.91 60.752C193.126 60.912 193.426 60.992 193.81 60.992C194.178 60.992 194.506 60.908 194.794 60.74C195.09 60.572 195.302 60.324 195.43 59.996L195.682 60.896C195.538 61.272 195.278 61.564 194.902 61.772C194.534 61.98 194.066 62.084 193.498 62.084ZM198.855 62V53.096H200.355V62H198.855ZM203.548 60.572L203.584 58.688L206.932 55.592H208.732L205.888 58.448L205.096 59.108L203.548 60.572ZM202.324 62V53.096H203.824V62H202.324ZM207.16 62L204.82 59.108L205.768 57.908L208.984 62H207.16ZM210.433 62.084C210.161 62.084 209.929 61.992 209.737 61.808C209.545 61.616 209.449 61.376 209.449 61.088C209.449 60.784 209.545 60.544 209.737 60.368C209.929 60.184 210.161 60.092 210.433 60.092C210.705 60.092 210.937 60.184 211.129 60.368C211.321 60.544 211.417 60.784 211.417 61.088C211.417 61.376 211.321 61.616 211.129 61.808C210.937 61.992 210.705 62.084 210.433 62.084ZM216.343 62V53.6H219.799C220.543 53.6 221.179 53.72 221.707 53.96C222.243 54.2 222.655 54.544 222.943 54.992C223.231 55.44 223.375 55.972 223.375 56.588C223.375 57.204 223.231 57.736 222.943 58.184C222.655 58.632 222.243 58.976 221.707 59.216C221.179 59.456 220.543 59.576 219.799 59.576H217.207L217.903 58.844V62H216.343ZM217.903 59.012L217.207 58.256H219.727C220.415 58.256 220.931 58.112 221.275 57.824C221.627 57.528 221.803 57.116 221.803 56.588C221.803 56.052 221.627 55.64 221.275 55.352C220.931 55.064 220.415 54.92 219.727 54.92H217.207L217.903 54.152V59.012ZM224.73 62V55.592H226.158V57.356L225.99 56.84C226.182 56.408 226.482 56.08 226.89 55.856C227.306 55.632 227.822 55.52 228.438 55.52V56.948C228.374 56.932 228.314 56.924 228.258 56.924C228.202 56.916 228.146 56.912 228.09 56.912C227.522 56.912 227.07 57.08 226.734 57.416C226.398 57.744 226.23 58.236 226.23 58.892V62H224.73ZM232.532 62.084C231.876 62.084 231.292 61.944 230.78 61.664C230.268 61.376 229.864 60.984 229.568 60.488C229.272 59.992 229.124 59.428 229.124 58.796C229.124 58.156 229.272 57.592 229.568 57.104C229.864 56.608 230.268 56.22 230.78 55.94C231.292 55.66 231.876 55.52 232.532 55.52C233.196 55.52 233.784 55.66 234.296 55.94C234.816 56.22 235.22 56.604 235.508 57.092C235.804 57.58 235.952 58.148 235.952 58.796C235.952 59.428 235.804 59.992 235.508 60.488C235.22 60.984 234.816 61.376 234.296 61.664C233.784 61.944 233.196 62.084 232.532 62.084ZM232.532 60.8C232.9 60.8 233.228 60.72 233.516 60.56C233.804 60.4 234.028 60.168 234.188 59.864C234.356 59.56 234.44 59.204 234.44 58.796C234.44 58.38 234.356 58.024 234.188 57.728C234.028 57.424 233.804 57.192 233.516 57.032C233.228 56.872 232.904 56.792 232.544 56.792C232.176 56.792 231.848 56.872 231.56 57.032C231.28 57.192 231.056 57.424 230.888 57.728C230.72 58.024 230.636 58.38 230.636 58.796C230.636 59.204 230.72 59.56 230.888 59.864C231.056 60.168 231.28 60.4 231.56 60.56C231.848 60.72 232.172 60.8 232.532 60.8ZM236.726 64.412C236.446 64.412 236.182 64.38 235.934 64.316C235.678 64.26 235.462 64.168 235.286 64.04L235.718 62.924C235.95 63.092 236.242 63.176 236.594 63.176C236.866 63.176 237.078 63.088 237.23 62.912C237.382 62.744 237.458 62.492 237.458 62.156V55.592H238.958V62.12C238.958 62.824 238.762 63.38 238.37 63.788C237.986 64.204 237.438 64.412 236.726 64.412ZM238.202 54.536C237.922 54.536 237.69 54.448 237.506 54.272C237.33 54.096 237.242 53.884 237.242 53.636C237.242 53.38 237.33 53.168 237.506 53C237.69 52.824 237.922 52.736 238.202 52.736C238.482 52.736 238.71 52.82 238.886 52.988C239.07 53.148 239.162 53.352 239.162 53.6C239.162 53.864 239.074 54.088 238.898 54.272C238.722 54.448 238.49 54.536 238.202 54.536ZM243.937 62.084C243.225 62.084 242.601 61.944 242.065 61.664C241.537 61.376 241.125 60.984 240.829 60.488C240.541 59.992 240.397 59.428 240.397 58.796C240.397 58.156 240.537 57.592 240.817 57.104C241.105 56.608 241.497 56.22 241.993 55.94C242.497 55.66 243.069 55.52 243.709 55.52C244.333 55.52 244.889 55.656 245.377 55.928C245.865 56.2 246.249 56.584 246.529 57.08C246.809 57.576 246.949 58.16 246.949 58.832C246.949 58.896 246.945 58.968 246.937 59.048C246.937 59.128 246.933 59.204 246.925 59.276H241.585V58.28H246.133L245.545 58.592C245.553 58.224 245.477 57.9 245.317 57.62C245.157 57.34 244.937 57.12 244.657 56.96C244.385 56.8 244.069 56.72 243.709 56.72C243.341 56.72 243.017 56.8 242.737 56.96C242.465 57.12 242.249 57.344 242.089 57.632C241.937 57.912 241.861 58.244 241.861 58.628V58.868C241.861 59.252 241.949 59.592 242.125 59.888C242.301 60.184 242.549 60.412 242.869 60.572C243.189 60.732 243.557 60.812 243.973 60.812C244.333 60.812 244.657 60.756 244.945 60.644C245.233 60.532 245.489 60.356 245.713 60.116L246.517 61.04C246.229 61.376 245.865 61.636 245.425 61.82C244.993 61.996 244.497 62.084 243.937 62.084ZM251.33 62.084C250.658 62.084 250.058 61.944 249.53 61.664C249.01 61.376 248.602 60.984 248.306 60.488C248.01 59.992 247.862 59.428 247.862 58.796C247.862 58.156 248.01 57.592 248.306 57.104C248.602 56.608 249.01 56.22 249.53 55.94C250.058 55.66 250.658 55.52 251.33 55.52C251.954 55.52 252.502 55.648 252.974 55.904C253.454 56.152 253.818 56.52 254.066 57.008L252.914 57.68C252.722 57.376 252.486 57.152 252.206 57.008C251.934 56.864 251.638 56.792 251.318 56.792C250.95 56.792 250.618 56.872 250.322 57.032C250.026 57.192 249.794 57.424 249.626 57.728C249.458 58.024 249.374 58.38 249.374 58.796C249.374 59.212 249.458 59.572 249.626 59.876C249.794 60.172 250.026 60.4 250.322 60.56C250.618 60.72 250.95 60.8 251.318 60.8C251.638 60.8 251.934 60.728 252.206 60.584C252.486 60.44 252.722 60.216 252.914 59.912L254.066 60.584C253.818 61.064 253.454 61.436 252.974 61.7C252.502 61.956 251.954 62.084 251.33 62.084ZM257.857 62.084C257.153 62.084 256.609 61.904 256.225 61.544C255.841 61.176 255.649 60.636 255.649 59.924V54.176H257.149V59.888C257.149 60.192 257.225 60.428 257.377 60.596C257.537 60.764 257.757 60.848 258.037 60.848C258.373 60.848 258.653 60.76 258.877 60.584L259.297 61.652C259.121 61.796 258.905 61.904 258.649 61.976C258.393 62.048 258.129 62.084 257.857 62.084ZM254.593 56.84V55.64H258.865V56.84H254.593ZM264.051 62V55.232C264.051 54.56 264.247 54.024 264.639 53.624C265.039 53.216 265.607 53.012 266.343 53.012C266.607 53.012 266.855 53.04 267.087 53.096C267.327 53.152 267.527 53.24 267.687 53.36L267.279 54.488C267.167 54.4 267.039 54.336 266.895 54.296C266.751 54.248 266.603 54.224 266.451 54.224C266.139 54.224 265.903 54.312 265.743 54.488C265.583 54.656 265.503 54.912 265.503 55.256V55.976L265.551 56.648V62H264.051ZM262.995 56.84V55.64H267.267V56.84H262.995ZM271.063 62.084C270.407 62.084 269.823 61.944 269.311 61.664C268.799 61.376 268.395 60.984 268.099 60.488C267.803 59.992 267.655 59.428 267.655 58.796C267.655 58.156 267.803 57.592 268.099 57.104C268.395 56.608 268.799 56.22 269.311 55.94C269.823 55.66 270.407 55.52 271.063 55.52C271.727 55.52 272.315 55.66 272.827 55.94C273.347 56.22 273.751 56.604 274.039 57.092C274.335 57.58 274.483 58.148 274.483 58.796C274.483 59.428 274.335 59.992 274.039 60.488C273.751 60.984 273.347 61.376 272.827 61.664C272.315 61.944 271.727 62.084 271.063 62.084ZM271.063 60.8C271.431 60.8 271.759 60.72 272.047 60.56C272.335 60.4 272.559 60.168 272.719 59.864C272.887 59.56 272.971 59.204 272.971 58.796C272.971 58.38 272.887 58.024 272.719 57.728C272.559 57.424 272.335 57.192 272.047 57.032C271.759 56.872 271.435 56.792 271.075 56.792C270.707 56.792 270.379 56.872 270.091 57.032C269.811 57.192 269.587 57.424 269.419 57.728C269.251 58.024 269.167 58.38 269.167 58.796C269.167 59.204 269.251 59.56 269.419 59.864C269.587 60.168 269.811 60.4 270.091 60.56C270.379 60.72 270.703 60.8 271.063 60.8ZM275.918 62V55.592H277.346V57.356L277.178 56.84C277.37 56.408 277.67 56.08 278.078 55.856C278.494 55.632 279.01 55.52 279.626 55.52V56.948C279.562 56.932 279.502 56.924 279.446 56.924C279.39 56.916 279.334 56.912 279.278 56.912C278.71 56.912 278.258 57.08 277.922 57.416C277.586 57.744 277.418 58.236 277.418 58.892V62H275.918ZM284.753 62.084C284.481 62.084 284.249 61.992 284.057 61.808C283.865 61.616 283.769 61.376 283.769 61.088C283.769 60.784 283.865 60.544 284.057 60.368C284.249 60.184 284.481 60.092 284.753 60.092C285.025 60.092 285.257 60.184 285.449 60.368C285.641 60.544 285.737 60.784 285.737 61.088C285.737 61.376 285.641 61.616 285.449 61.808C285.257 61.992 285.025 62.084 284.753 62.084Z" fill="#757575"/>
<path d="M1380.02 54.2V64H1378.2V59.8H1373.14V64H1371.32V54.2H1373.14V58.246H1378.2V54.2H1380.02ZM1385.84 64.098C1385.09 64.098 1384.4 63.9347 1383.8 63.608C1383.19 63.2813 1382.72 62.8287 1382.37 62.25C1382.03 61.662 1381.87 60.9993 1381.87 60.262C1381.87 59.5247 1382.03 58.8667 1382.37 58.288C1382.72 57.7093 1383.19 57.2567 1383.8 56.93C1384.4 56.6033 1385.09 56.44 1385.84 56.44C1386.61 56.44 1387.29 56.6033 1387.9 56.93C1388.51 57.2567 1388.98 57.7093 1389.31 58.288C1389.66 58.8667 1389.83 59.5247 1389.83 60.262C1389.83 60.9993 1389.66 61.662 1389.31 62.25C1388.98 62.8287 1388.51 63.2813 1387.9 63.608C1387.29 63.9347 1386.61 64.098 1385.84 64.098ZM1385.84 62.6C1386.49 62.6 1387.02 62.3853 1387.44 61.956C1387.86 61.5267 1388.07 60.962 1388.07 60.262C1388.07 59.562 1387.86 58.9973 1387.44 58.568C1387.02 58.1387 1386.49 57.924 1385.84 57.924C1385.2 57.924 1384.67 58.1387 1384.25 58.568C1383.84 58.9973 1383.63 59.562 1383.63 60.262C1383.63 60.962 1383.84 61.5267 1384.25 61.956C1384.67 62.3853 1385.2 62.6 1385.84 62.6ZM1400.94 56.44C1401.88 56.44 1402.63 56.7153 1403.18 57.266C1403.73 57.8073 1404.01 58.624 1404.01 59.716V64H1402.26V59.94C1402.26 59.2867 1402.11 58.7967 1401.82 58.47C1401.53 58.134 1401.12 57.966 1400.58 57.966C1399.99 57.966 1399.52 58.162 1399.16 58.554C1398.81 58.9367 1398.63 59.4873 1398.63 60.206V64H1396.88V59.94C1396.88 59.2867 1396.74 58.7967 1396.45 58.47C1396.16 58.134 1395.74 57.966 1395.2 57.966C1394.6 57.966 1394.13 58.1573 1393.77 58.54C1393.43 58.9227 1393.26 59.478 1393.26 60.206V64H1391.51V56.524H1393.17V57.476C1393.45 57.14 1393.8 56.8833 1394.22 56.706C1394.64 56.5287 1395.11 56.44 1395.62 56.44C1396.18 56.44 1396.68 56.5473 1397.11 56.762C1397.54 56.9673 1397.89 57.2753 1398.14 57.686C1398.45 57.294 1398.85 56.9907 1399.33 56.776C1399.82 56.552 1400.35 56.44 1400.94 56.44ZM1413.34 60.304C1413.34 60.4253 1413.33 60.598 1413.31 60.822H1407.45C1407.55 61.3727 1407.81 61.8113 1408.24 62.138C1408.68 62.4553 1409.22 62.614 1409.87 62.614C1410.69 62.614 1411.37 62.3433 1411.9 61.802L1412.84 62.88C1412.5 63.2813 1412.08 63.5847 1411.56 63.79C1411.05 63.9953 1410.47 64.098 1409.83 64.098C1409 64.098 1408.28 63.9347 1407.66 63.608C1407.03 63.2813 1406.55 62.8287 1406.2 62.25C1405.86 61.662 1405.7 60.9993 1405.7 60.262C1405.7 59.534 1405.86 58.8807 1406.19 58.302C1406.52 57.714 1406.98 57.2567 1407.57 56.93C1408.16 56.6033 1408.82 56.44 1409.56 56.44C1410.29 56.44 1410.94 56.6033 1411.51 56.93C1412.08 57.2473 1412.53 57.7 1412.85 58.288C1413.18 58.8667 1413.34 59.5387 1413.34 60.304ZM1409.56 57.84C1409 57.84 1408.52 58.008 1408.13 58.344C1407.75 58.6707 1407.52 59.1093 1407.43 59.66H1411.67C1411.6 59.1187 1411.37 58.68 1410.99 58.344C1410.61 58.008 1410.13 57.84 1409.56 57.84Z" fill="#757575"/>
<path d="M1447.3 55.74H1444.06V54.2H1452.37V55.74H1449.12V64H1447.3V55.74ZM1459.83 60.304C1459.83 60.4253 1459.82 60.598 1459.8 60.822H1453.94C1454.04 61.3727 1454.31 61.8113 1454.74 62.138C1455.17 62.4553 1455.72 62.614 1456.36 62.614C1457.18 62.614 1457.86 62.3433 1458.39 61.802L1459.33 62.88C1458.99 63.2813 1458.57 63.5847 1458.05 63.79C1457.54 63.9953 1456.96 64.098 1456.32 64.098C1455.5 64.098 1454.77 63.9347 1454.15 63.608C1453.52 63.2813 1453.04 62.8287 1452.69 62.25C1452.36 61.662 1452.19 60.9993 1452.19 60.262C1452.19 59.534 1452.35 58.8807 1452.68 58.302C1453.01 57.714 1453.48 57.2567 1454.06 56.93C1454.65 56.6033 1455.31 56.44 1456.05 56.44C1456.78 56.44 1457.43 56.6033 1458 56.93C1458.58 57.2473 1459.02 57.7 1459.34 58.288C1459.67 58.8667 1459.83 59.5387 1459.83 60.304ZM1456.05 57.84C1455.49 57.84 1455.02 58.008 1454.62 58.344C1454.24 58.6707 1454.01 59.1093 1453.92 59.66H1458.17C1458.09 59.1187 1457.86 58.68 1457.48 58.344C1457.1 58.008 1456.62 57.84 1456.05 57.84ZM1466.07 64L1464.15 61.41L1462.22 64H1460.29L1463.2 60.206L1460.41 56.524H1462.36L1464.19 58.974L1466.03 56.524H1467.92L1465.12 60.178L1468.04 64H1466.07ZM1473.83 63.594C1473.62 63.762 1473.37 63.888 1473.07 63.972C1472.78 64.056 1472.47 64.098 1472.15 64.098C1471.33 64.098 1470.69 63.8833 1470.24 63.454C1469.8 63.0247 1469.57 62.3993 1469.57 61.578V57.98H1468.34V56.58H1469.57V54.872H1471.32V56.58H1473.32V57.98H1471.32V61.536C1471.32 61.9 1471.41 62.18 1471.59 62.376C1471.76 62.5627 1472.02 62.656 1472.36 62.656C1472.75 62.656 1473.08 62.5533 1473.34 62.348L1473.83 63.594ZM1479.41 56.44C1480.14 56.44 1480.79 56.5987 1481.36 56.916C1481.94 57.2333 1482.39 57.6813 1482.72 58.26C1483.04 58.8387 1483.21 59.506 1483.21 60.262C1483.21 61.018 1483.04 61.69 1482.72 62.278C1482.39 62.8567 1481.94 63.3047 1481.36 63.622C1480.79 63.9393 1480.14 64.098 1479.41 64.098C1478.9 64.098 1478.43 64.0093 1478 63.832C1477.58 63.6547 1477.22 63.3887 1476.93 63.034V64H1475.27V53.612H1477.02V57.434C1477.32 57.1073 1477.67 56.86 1478.07 56.692C1478.48 56.524 1478.93 56.44 1479.41 56.44ZM1479.22 62.6C1479.86 62.6 1480.39 62.3853 1480.8 61.956C1481.22 61.5267 1481.43 60.962 1481.43 60.262C1481.43 59.562 1481.22 58.9973 1480.8 58.568C1480.39 58.1387 1479.86 57.924 1479.22 57.924C1478.8 57.924 1478.42 58.022 1478.08 58.218C1477.75 58.4047 1477.48 58.6753 1477.28 59.03C1477.09 59.3847 1476.99 59.7953 1476.99 60.262C1476.99 60.7287 1477.09 61.1393 1477.28 61.494C1477.48 61.8487 1477.75 62.124 1478.08 62.32C1478.42 62.5067 1478.8 62.6 1479.22 62.6ZM1488.22 64.098C1487.47 64.098 1486.79 63.9347 1486.18 63.608C1485.57 63.2813 1485.1 62.8287 1484.75 62.25C1484.42 61.662 1484.25 60.9993 1484.25 60.262C1484.25 59.5247 1484.42 58.8667 1484.75 58.288C1485.1 57.7093 1485.57 57.2567 1486.18 56.93C1486.79 56.6033 1487.47 56.44 1488.22 56.44C1488.99 56.44 1489.68 56.6033 1490.28 56.93C1490.89 57.2567 1491.36 57.7093 1491.7 58.288C1492.04 58.8667 1492.21 59.5247 1492.21 60.262C1492.21 60.9993 1492.04 61.662 1491.7 62.25C1491.36 62.8287 1490.89 63.2813 1490.28 63.608C1489.68 63.9347 1488.99 64.098 1488.22 64.098ZM1488.22 62.6C1488.87 62.6 1489.4 62.3853 1489.82 61.956C1490.24 61.5267 1490.45 60.962 1490.45 60.262C1490.45 59.562 1490.24 58.9973 1489.82 58.568C1489.4 58.1387 1488.87 57.924 1488.22 57.924C1487.58 57.924 1487.05 58.1387 1486.63 58.568C1486.22 58.9973 1486.01 59.562 1486.01 60.262C1486.01 60.962 1486.22 61.5267 1486.63 61.956C1487.05 62.3853 1487.58 62.6 1488.22 62.6ZM1497.25 64.098C1496.49 64.098 1495.81 63.9347 1495.2 63.608C1494.6 63.2813 1494.12 62.8287 1493.78 62.25C1493.44 61.662 1493.27 60.9993 1493.27 60.262C1493.27 59.5247 1493.44 58.8667 1493.78 58.288C1494.12 57.7093 1494.6 57.2567 1495.2 56.93C1495.81 56.6033 1496.49 56.44 1497.25 56.44C1498.01 56.44 1498.7 56.6033 1499.31 56.93C1499.91 57.2567 1500.38 57.7093 1500.72 58.288C1501.07 58.8667 1501.24 59.5247 1501.24 60.262C1501.24 60.9993 1501.07 61.662 1500.72 62.25C1500.38 62.8287 1499.91 63.2813 1499.31 63.608C1498.7 63.9347 1498.01 64.098 1497.25 64.098ZM1497.25 62.6C1497.89 62.6 1498.42 62.3853 1498.84 61.956C1499.26 61.5267 1499.47 60.962 1499.47 60.262C1499.47 59.562 1499.26 58.9973 1498.84 58.568C1498.42 58.1387 1497.89 57.924 1497.25 57.924C1496.6 57.924 1496.07 58.1387 1495.65 58.568C1495.24 58.9973 1495.04 59.562 1495.04 60.262C1495.04 60.962 1495.24 61.5267 1495.65 61.956C1496.07 62.3853 1496.6 62.6 1497.25 62.6ZM1505.96 60.794L1504.66 62.026V64H1502.91V53.612H1504.66V59.884L1508.29 56.524H1510.39L1507.27 59.66L1510.68 64H1508.55L1505.96 60.794Z" fill="#757575"/>
<path d="M1545.35 64.14C1544.59 64.14 1543.86 64.0327 1543.16 63.818C1542.46 63.594 1541.9 63.3093 1541.49 62.964L1542.12 61.55C1542.51 61.858 1543 62.1147 1543.58 62.32C1544.15 62.5253 1544.75 62.628 1545.35 62.628C1545.87 62.628 1546.28 62.572 1546.6 62.46C1546.92 62.348 1547.15 62.1987 1547.3 62.012C1547.45 61.816 1547.52 61.5967 1547.52 61.354C1547.52 61.0553 1547.42 60.8173 1547.2 60.64C1546.99 60.4533 1546.71 60.3087 1546.36 60.206C1546.03 60.094 1545.65 59.9913 1545.23 59.898C1544.82 59.8047 1544.4 59.6973 1543.98 59.576C1543.57 59.4453 1543.19 59.282 1542.85 59.086C1542.51 58.8807 1542.24 58.61 1542.02 58.274C1541.81 57.938 1541.7 57.5087 1541.7 56.986C1541.7 56.454 1541.84 55.9687 1542.12 55.53C1542.41 55.082 1542.84 54.7273 1543.42 54.466C1544.01 54.1953 1544.75 54.06 1545.65 54.06C1546.24 54.06 1546.82 54.1347 1547.4 54.284C1547.98 54.4333 1548.48 54.648 1548.91 54.928L1548.34 56.342C1547.9 56.0807 1547.44 55.8893 1546.98 55.768C1546.51 55.6373 1546.06 55.572 1545.63 55.572C1545.13 55.572 1544.72 55.6327 1544.4 55.754C1544.09 55.8753 1543.87 56.034 1543.72 56.23C1543.58 56.426 1543.51 56.65 1543.51 56.902C1543.51 57.2007 1543.61 57.4433 1543.81 57.63C1544.03 57.8073 1544.3 57.9473 1544.64 58.05C1544.99 58.1527 1545.37 58.2553 1545.79 58.358C1546.21 58.4513 1546.62 58.5587 1547.03 58.68C1547.45 58.8013 1547.83 58.96 1548.17 59.156C1548.51 59.352 1548.79 59.618 1548.99 59.954C1549.21 60.29 1549.32 60.7147 1549.32 61.228C1549.32 61.7507 1549.17 62.236 1548.88 62.684C1548.6 63.1227 1548.17 63.4773 1547.58 63.748C1546.99 64.0093 1546.25 64.14 1545.35 64.14ZM1553.77 64.098C1552.95 64.098 1552.31 63.888 1551.86 63.468C1551.41 63.0387 1551.19 62.4087 1551.19 61.578V54.872H1552.94V61.536C1552.94 61.8907 1553.03 62.166 1553.21 62.362C1553.39 62.558 1553.65 62.656 1553.98 62.656C1554.37 62.656 1554.7 62.5533 1554.96 62.348L1555.45 63.594C1555.24 63.762 1554.99 63.888 1554.69 63.972C1554.39 64.056 1554.08 64.098 1553.77 64.098ZM1549.96 57.98V56.58H1554.94V57.98H1549.96ZM1561.49 64V62.488L1561.39 62.166V59.52C1561.39 59.0067 1561.24 58.61 1560.93 58.33C1560.62 58.0407 1560.16 57.896 1559.53 57.896C1559.11 57.896 1558.7 57.9613 1558.29 58.092C1557.88 58.2227 1557.54 58.4047 1557.26 58.638L1556.58 57.364C1556.98 57.056 1557.46 56.8273 1558.01 56.678C1558.57 56.5193 1559.14 56.44 1559.74 56.44C1560.82 56.44 1561.66 56.7013 1562.25 57.224C1562.85 57.7373 1563.14 58.5353 1563.14 59.618V64H1561.49ZM1559.14 64.098C1558.58 64.098 1558.09 64.0047 1557.67 63.818C1557.25 63.622 1556.92 63.356 1556.69 63.02C1556.47 62.6747 1556.35 62.2873 1556.35 61.858C1556.35 61.438 1556.45 61.06 1556.65 60.724C1556.85 60.388 1557.18 60.122 1557.64 59.926C1558.1 59.73 1558.71 59.632 1559.46 59.632H1561.63V60.794H1559.59C1558.99 60.794 1558.59 60.892 1558.38 61.088C1558.18 61.2747 1558.08 61.508 1558.08 61.788C1558.08 62.1053 1558.2 62.3573 1558.45 62.544C1558.71 62.7307 1559.06 62.824 1559.5 62.824C1559.93 62.824 1560.32 62.726 1560.65 62.53C1561 62.334 1561.24 62.0447 1561.39 61.662L1561.69 62.712C1561.52 63.1507 1561.22 63.4913 1560.78 63.734C1560.35 63.9767 1559.8 64.098 1559.14 64.098ZM1568.2 64.098C1567.38 64.098 1566.75 63.888 1566.3 63.468C1565.85 63.0387 1565.63 62.4087 1565.63 61.578V54.872H1567.38V61.536C1567.38 61.8907 1567.47 62.166 1567.64 62.362C1567.83 62.558 1568.09 62.656 1568.41 62.656C1568.81 62.656 1569.13 62.5533 1569.39 62.348L1569.88 63.594C1569.68 63.762 1569.43 63.888 1569.13 63.972C1568.83 64.056 1568.52 64.098 1568.2 64.098ZM1564.4 57.98V56.58H1569.38V57.98H1564.4ZM1571.32 64V56.524H1573.07V64H1571.32ZM1572.21 55.292C1571.88 55.292 1571.61 55.1893 1571.39 54.984C1571.19 54.7787 1571.09 54.5313 1571.09 54.242C1571.09 53.9433 1571.19 53.696 1571.39 53.5C1571.61 53.2947 1571.88 53.192 1572.21 53.192C1572.53 53.192 1572.8 53.29 1573 53.486C1573.22 53.6727 1573.33 53.9107 1573.33 54.2C1573.33 54.508 1573.22 54.7693 1573.02 54.984C1572.81 55.1893 1572.54 55.292 1572.21 55.292ZM1577.68 64.098C1577.06 64.098 1576.45 64.0187 1575.87 63.86C1575.31 63.692 1574.85 63.4913 1574.52 63.258L1575.19 61.928C1575.52 62.1427 1575.93 62.32 1576.39 62.46C1576.86 62.6 1577.33 62.67 1577.79 62.67C1578.34 62.67 1578.74 62.5953 1578.98 62.446C1579.23 62.2967 1579.36 62.096 1579.36 61.844C1579.36 61.6387 1579.28 61.4847 1579.11 61.382C1578.94 61.27 1578.72 61.186 1578.45 61.13C1578.18 61.074 1577.88 61.0227 1577.54 60.976C1577.21 60.9293 1576.88 60.8687 1576.55 60.794C1576.22 60.71 1575.92 60.5933 1575.65 60.444C1575.38 60.2853 1575.16 60.0753 1574.99 59.814C1574.82 59.5527 1574.74 59.2073 1574.74 58.778C1574.74 58.302 1574.88 57.8913 1575.15 57.546C1575.42 57.1913 1575.8 56.9207 1576.28 56.734C1576.78 56.538 1577.36 56.44 1578.03 56.44C1578.53 56.44 1579.04 56.496 1579.56 56.608C1580.07 56.72 1580.49 56.8787 1580.83 57.084L1580.16 58.414C1579.8 58.1993 1579.44 58.0547 1579.08 57.98C1578.73 57.896 1578.37 57.854 1578.02 57.854C1577.48 57.854 1577.09 57.9333 1576.83 58.092C1576.57 58.2507 1576.45 58.4513 1576.45 58.694C1576.45 58.918 1576.53 59.086 1576.7 59.198C1576.87 59.31 1577.09 59.3987 1577.36 59.464C1577.63 59.5293 1577.93 59.5853 1578.25 59.632C1578.59 59.6693 1578.92 59.73 1579.25 59.814C1579.58 59.898 1579.87 60.0147 1580.14 60.164C1580.42 60.304 1580.65 60.5047 1580.82 60.766C1580.98 61.0273 1581.07 61.368 1581.07 61.788C1581.07 62.2547 1580.93 62.6607 1580.65 63.006C1580.38 63.3513 1579.99 63.622 1579.49 63.818C1578.98 64.0047 1578.38 64.098 1577.68 64.098ZM1585.39 64.098C1584.57 64.098 1583.93 63.888 1583.49 63.468C1583.04 63.0387 1582.81 62.4087 1582.81 61.578V54.872H1584.56V61.536C1584.56 61.8907 1584.65 62.166 1584.83 62.362C1585.02 62.558 1585.27 62.656 1585.6 62.656C1585.99 62.656 1586.32 62.5533 1586.58 62.348L1587.07 63.594C1586.86 63.762 1586.61 63.888 1586.31 63.972C1586.02 64.056 1585.71 64.098 1585.39 64.098ZM1581.58 57.98V56.58H1586.57V57.98H1581.58ZM1588.51 64V56.524H1590.26V64H1588.51ZM1589.39 55.292C1589.06 55.292 1588.79 55.1893 1588.58 54.984C1588.37 54.7787 1588.27 54.5313 1588.27 54.242C1588.27 53.9433 1588.37 53.696 1588.58 53.5C1588.79 53.2947 1589.06 53.192 1589.39 53.192C1589.72 53.192 1589.98 53.29 1590.19 53.486C1590.4 53.6727 1590.51 53.9107 1590.51 54.2C1590.51 54.508 1590.41 54.7693 1590.2 54.984C1590 55.1893 1589.73 55.292 1589.39 55.292ZM1595.99 64.098C1595.2 64.098 1594.5 63.9347 1593.89 63.608C1593.28 63.272 1592.8 62.8147 1592.46 62.236C1592.11 61.6573 1591.94 60.9993 1591.94 60.262C1591.94 59.5153 1592.11 58.8573 1592.46 58.288C1592.8 57.7093 1593.28 57.2567 1593.89 56.93C1594.5 56.6033 1595.2 56.44 1595.99 56.44C1596.71 56.44 1597.35 56.5893 1597.9 56.888C1598.46 57.1773 1598.89 57.6067 1599.18 58.176L1597.83 58.96C1597.61 58.6053 1597.33 58.344 1597.01 58.176C1596.69 58.008 1596.35 57.924 1595.97 57.924C1595.54 57.924 1595.16 58.0173 1594.81 58.204C1594.46 58.3907 1594.19 58.6613 1594 59.016C1593.8 59.3613 1593.7 59.7767 1593.7 60.262C1593.7 60.7473 1593.8 61.1673 1594 61.522C1594.19 61.8673 1594.46 62.1333 1594.81 62.32C1595.16 62.5067 1595.54 62.6 1595.97 62.6C1596.35 62.6 1596.69 62.516 1597.01 62.348C1597.33 62.18 1597.61 61.9187 1597.83 61.564L1599.18 62.348C1598.89 62.908 1598.46 63.342 1597.9 63.65C1597.35 63.9487 1596.71 64.098 1595.99 64.098ZM1603 64.098C1602.38 64.098 1601.77 64.0187 1601.19 63.86C1600.63 63.692 1600.17 63.4913 1599.84 63.258L1600.51 61.928C1600.84 62.1427 1601.25 62.32 1601.71 62.46C1602.18 62.6 1602.65 62.67 1603.11 62.67C1603.66 62.67 1604.06 62.5953 1604.3 62.446C1604.55 62.2967 1604.68 62.096 1604.68 61.844C1604.68 61.6387 1604.6 61.4847 1604.43 61.382C1604.26 61.27 1604.04 61.186 1603.77 61.13C1603.5 61.074 1603.2 61.0227 1602.86 60.976C1602.53 60.9293 1602.2 60.8687 1601.87 60.794C1601.54 60.71 1601.24 60.5933 1600.97 60.444C1600.7 60.2853 1600.48 60.0753 1600.31 59.814C1600.14 59.5527 1600.06 59.2073 1600.06 58.778C1600.06 58.302 1600.2 57.8913 1600.47 57.546C1600.74 57.1913 1601.12 56.9207 1601.6 56.734C1602.1 56.538 1602.68 56.44 1603.35 56.44C1603.85 56.44 1604.36 56.496 1604.88 56.608C1605.39 56.72 1605.81 56.8787 1606.15 57.084L1605.48 58.414C1605.12 58.1993 1604.76 58.0547 1604.4 57.98C1604.05 57.896 1603.69 57.854 1603.34 57.854C1602.8 57.854 1602.41 57.9333 1602.15 58.092C1601.89 58.2507 1601.77 58.4513 1601.77 58.694C1601.77 58.918 1601.85 59.086 1602.02 59.198C1602.19 59.31 1602.41 59.3987 1602.68 59.464C1602.95 59.5293 1603.25 59.5853 1603.57 59.632C1603.91 59.6693 1604.24 59.73 1604.57 59.814C1604.9 59.898 1605.19 60.0147 1605.46 60.164C1605.74 60.304 1605.97 60.5047 1606.14 60.766C1606.3 61.0273 1606.39 61.368 1606.39 61.788C1606.39 62.2547 1606.25 62.6607 1605.97 63.006C1605.7 63.3513 1605.31 63.622 1604.81 63.818C1604.3 64.0047 1603.7 64.098 1603 64.098Z" fill="#757575"/>
<path d="M1641.35 64.14C1640.6 64.14 1639.87 64.0327 1639.16 63.818C1638.46 63.6033 1637.9 63.3187 1637.49 62.964L1638.12 61.55C1638.52 61.8673 1639.01 62.1287 1639.59 62.334C1640.18 62.53 1640.77 62.628 1641.35 62.628C1642.08 62.628 1642.62 62.5113 1642.98 62.278C1643.34 62.0447 1643.52 61.7367 1643.52 61.354C1643.52 61.074 1643.42 60.8453 1643.22 60.668C1643.02 60.4813 1642.77 60.3367 1642.46 60.234C1642.15 60.1313 1641.73 60.0147 1641.2 59.884C1640.45 59.7067 1639.85 59.5293 1639.38 59.352C1638.92 59.1747 1638.53 58.8993 1638.19 58.526C1637.86 58.1433 1637.7 57.63 1637.7 56.986C1637.7 56.4447 1637.84 55.9547 1638.13 55.516C1638.43 55.068 1638.88 54.7133 1639.46 54.452C1640.06 54.1907 1640.79 54.06 1641.65 54.06C1642.25 54.06 1642.83 54.1347 1643.41 54.284C1643.99 54.4333 1644.49 54.648 1644.91 54.928L1644.34 56.342C1643.91 56.09 1643.46 55.8987 1642.99 55.768C1642.53 55.6373 1642.07 55.572 1641.63 55.572C1640.92 55.572 1640.38 55.6933 1640.02 55.936C1639.68 56.1787 1639.51 56.5007 1639.51 56.902C1639.51 57.182 1639.6 57.4107 1639.8 57.588C1640.01 57.7653 1640.26 57.9053 1640.57 58.008C1640.88 58.1107 1641.3 58.2273 1641.83 58.358C1642.56 58.526 1643.16 58.7033 1643.62 58.89C1644.09 59.0673 1644.49 59.3427 1644.81 59.716C1645.15 60.0893 1645.32 60.5933 1645.32 61.228C1645.32 61.7693 1645.17 62.2593 1644.87 62.698C1644.58 63.1367 1644.14 63.4867 1643.54 63.748C1642.94 64.0093 1642.21 64.14 1641.35 64.14ZM1651.1 56.44C1651.82 56.44 1652.47 56.5987 1653.04 56.916C1653.62 57.2333 1654.07 57.6813 1654.4 58.26C1654.73 58.8387 1654.89 59.506 1654.89 60.262C1654.89 61.018 1654.73 61.69 1654.4 62.278C1654.07 62.8567 1653.62 63.3047 1653.04 63.622C1652.47 63.9393 1651.82 64.098 1651.1 64.098C1650.09 64.098 1649.29 63.762 1648.7 63.09V66.716H1646.95V56.524H1648.62V57.504C1648.91 57.1493 1649.26 56.8833 1649.68 56.706C1650.11 56.5287 1650.58 56.44 1651.1 56.44ZM1650.9 62.6C1651.54 62.6 1652.07 62.3853 1652.48 61.956C1652.9 61.5267 1653.11 60.962 1653.11 60.262C1653.11 59.562 1652.9 58.9973 1652.48 58.568C1652.07 58.1387 1651.54 57.924 1650.9 57.924C1650.48 57.924 1650.1 58.022 1649.77 58.218C1649.43 58.4047 1649.16 58.6753 1648.97 59.03C1648.77 59.3847 1648.67 59.7953 1648.67 60.262C1648.67 60.7287 1648.77 61.1393 1648.97 61.494C1649.16 61.8487 1649.43 62.124 1649.77 62.32C1650.1 62.5067 1650.48 62.6 1650.9 62.6ZM1658.22 57.616C1658.72 56.832 1659.61 56.44 1660.88 56.44V58.106C1660.73 58.078 1660.59 58.064 1660.47 58.064C1659.79 58.064 1659.26 58.2647 1658.87 58.666C1658.49 59.058 1658.3 59.6273 1658.3 60.374V64H1656.55V56.524H1658.22V57.616ZM1662.36 56.524H1664.11V64H1662.36V56.524ZM1663.24 55.292C1662.93 55.292 1662.66 55.194 1662.44 54.998C1662.23 54.7927 1662.12 54.5407 1662.12 54.242C1662.12 53.9433 1662.23 53.696 1662.44 53.5C1662.66 53.2947 1662.93 53.192 1663.24 53.192C1663.56 53.192 1663.83 53.29 1664.04 53.486C1664.26 53.6727 1664.36 53.9107 1664.36 54.2C1664.36 54.508 1664.26 54.7693 1664.04 54.984C1663.84 55.1893 1663.57 55.292 1663.24 55.292ZM1670.65 56.44C1671.59 56.44 1672.35 56.7153 1672.92 57.266C1673.49 57.8167 1673.77 58.6333 1673.77 59.716V64H1672.02V59.94C1672.02 59.2867 1671.87 58.7967 1671.56 58.47C1671.25 58.134 1670.81 57.966 1670.24 57.966C1669.6 57.966 1669.09 58.162 1668.72 58.554C1668.34 58.9367 1668.16 59.492 1668.16 60.22V64H1666.41V56.524H1668.07V57.49C1668.36 57.1447 1668.73 56.8833 1669.17 56.706C1669.6 56.5287 1670.1 56.44 1670.65 56.44ZM1680.49 63.594C1680.28 63.762 1680.03 63.888 1679.73 63.972C1679.44 64.056 1679.13 64.098 1678.81 64.098C1677.98 64.098 1677.35 63.8833 1676.9 63.454C1676.45 63.0247 1676.23 62.3993 1676.23 61.578V57.98H1675V56.58H1676.23V54.872H1677.98V56.58H1679.98V57.98H1677.98V61.536C1677.98 61.9 1678.07 62.18 1678.25 62.376C1678.42 62.5627 1678.68 62.656 1679.02 62.656C1679.41 62.656 1679.73 62.5533 1680 62.348L1680.49 63.594Z" fill="#757575"/>
<path d="M1718.67 61.732H1713.77L1712.81 64H1710.93L1715.34 54.2H1717.13L1721.56 64H1719.65L1718.67 61.732ZM1718.07 60.304L1716.22 56.02L1714.39 60.304H1718.07ZM1729.74 56.524V64H1728.07V63.048C1727.79 63.384 1727.44 63.6453 1727.02 63.832C1726.6 64.0093 1726.15 64.098 1725.66 64.098C1724.66 64.098 1723.87 63.8227 1723.3 63.272C1722.73 62.712 1722.44 61.886 1722.44 60.794V56.524H1724.19V60.556C1724.19 61.228 1724.34 61.732 1724.64 62.068C1724.95 62.3947 1725.38 62.558 1725.94 62.558C1726.57 62.558 1727.06 62.3667 1727.43 61.984C1727.8 61.592 1727.99 61.032 1727.99 60.304V56.524H1729.74ZM1739.35 53.612V64H1737.67V63.034C1737.38 63.3887 1737.02 63.6547 1736.59 63.832C1736.17 64.0093 1735.7 64.098 1735.19 64.098C1734.47 64.098 1733.82 63.9393 1733.24 63.622C1732.68 63.3047 1732.23 62.8567 1731.9 62.278C1731.57 61.69 1731.41 61.018 1731.41 60.262C1731.41 59.506 1731.57 58.8387 1731.9 58.26C1732.23 57.6813 1732.68 57.2333 1733.24 56.916C1733.82 56.5987 1734.47 56.44 1735.19 56.44C1735.69 56.44 1736.14 56.524 1736.55 56.692C1736.96 56.86 1737.31 57.112 1737.6 57.448V53.612H1739.35ZM1735.4 62.6C1735.82 62.6 1736.2 62.5067 1736.53 62.32C1736.87 62.124 1737.14 61.8487 1737.33 61.494C1737.53 61.1393 1737.63 60.7287 1737.63 60.262C1737.63 59.7953 1737.53 59.3847 1737.33 59.03C1737.14 58.6753 1736.87 58.4047 1736.53 58.218C1736.2 58.022 1735.82 57.924 1735.4 57.924C1734.98 57.924 1734.6 58.022 1734.27 58.218C1733.93 58.4047 1733.66 58.6753 1733.47 59.03C1733.27 59.3847 1733.17 59.7953 1733.17 60.262C1733.17 60.7287 1733.27 61.1393 1733.47 61.494C1733.66 61.8487 1733.93 62.124 1734.27 62.32C1734.6 62.5067 1734.98 62.6 1735.4 62.6ZM1741.64 56.524H1743.39V64H1741.64V56.524ZM1742.52 55.292C1742.2 55.292 1741.94 55.194 1741.72 54.998C1741.51 54.7927 1741.4 54.5407 1741.4 54.242C1741.4 53.9433 1741.51 53.696 1741.72 53.5C1741.94 53.2947 1742.2 53.192 1742.52 53.192C1742.84 53.192 1743.1 53.29 1743.32 53.486C1743.53 53.6727 1743.64 53.9107 1743.64 54.2C1743.64 54.508 1743.53 54.7693 1743.32 54.984C1743.11 55.1893 1742.85 55.292 1742.52 55.292ZM1749.05 64.098C1748.29 64.098 1747.61 63.9347 1747 63.608C1746.39 63.2813 1745.92 62.8287 1745.57 62.25C1745.24 61.662 1745.07 60.9993 1745.07 60.262C1745.07 59.5247 1745.24 58.8667 1745.57 58.288C1745.92 57.7093 1746.39 57.2567 1747 56.93C1747.61 56.6033 1748.29 56.44 1749.05 56.44C1749.81 56.44 1750.5 56.6033 1751.1 56.93C1751.71 57.2567 1752.18 57.7093 1752.52 58.288C1752.86 58.8667 1753.04 59.5247 1753.04 60.262C1753.04 60.9993 1752.86 61.662 1752.52 62.25C1752.18 62.8287 1751.71 63.2813 1751.1 63.608C1750.5 63.9347 1749.81 64.098 1749.05 64.098ZM1749.05 62.6C1749.69 62.6 1750.22 62.3853 1750.64 61.956C1751.06 61.5267 1751.27 60.962 1751.27 60.262C1751.27 59.562 1751.06 58.9973 1750.64 58.568C1750.22 58.1387 1749.69 57.924 1749.05 57.924C1748.4 57.924 1747.87 58.1387 1747.45 58.568C1747.04 58.9973 1746.83 59.562 1746.83 60.262C1746.83 60.962 1747.04 61.5267 1747.45 61.956C1747.87 62.3853 1748.4 62.6 1749.05 62.6ZM1754.47 59.38H1758.32V60.836H1754.47V59.38ZM1763.8 64.098C1763.02 64.098 1762.33 63.9347 1761.71 63.608C1761.1 63.2813 1760.62 62.8287 1760.27 62.25C1759.93 61.662 1759.75 60.9993 1759.75 60.262C1759.75 59.5247 1759.93 58.8667 1760.27 58.288C1760.62 57.7093 1761.09 57.2567 1761.7 56.93C1762.31 56.6033 1763.01 56.44 1763.8 56.44C1764.54 56.44 1765.18 56.5893 1765.73 56.888C1766.29 57.1867 1766.71 57.616 1766.99 58.176L1765.65 58.96C1765.43 58.6147 1765.16 58.358 1764.83 58.19C1764.52 58.0127 1764.17 57.924 1763.78 57.924C1763.13 57.924 1762.59 58.1387 1762.16 58.568C1761.73 58.988 1761.52 59.5527 1761.52 60.262C1761.52 60.9713 1761.73 61.5407 1762.15 61.97C1762.58 62.39 1763.12 62.6 1763.78 62.6C1764.17 62.6 1764.52 62.516 1764.83 62.348C1765.16 62.1707 1765.43 61.9093 1765.65 61.564L1766.99 62.348C1766.7 62.908 1766.28 63.342 1765.72 63.65C1765.17 63.9487 1764.53 64.098 1763.8 64.098ZM1771.36 56.44C1772.46 56.44 1773.3 56.706 1773.88 57.238C1774.47 57.7607 1774.76 58.554 1774.76 59.618V64H1773.11V63.09C1772.89 63.4167 1772.59 63.6687 1772.19 63.846C1771.79 64.014 1771.32 64.098 1770.76 64.098C1770.2 64.098 1769.71 64.0047 1769.29 63.818C1768.87 63.622 1768.54 63.356 1768.31 63.02C1768.08 62.6747 1767.97 62.2873 1767.97 61.858C1767.97 61.186 1768.22 60.6493 1768.71 60.248C1769.22 59.8373 1770.01 59.632 1771.08 59.632H1773.01V59.52C1773.01 58.9973 1772.85 58.596 1772.54 58.316C1772.23 58.036 1771.77 57.896 1771.15 57.896C1770.73 57.896 1770.31 57.9613 1769.9 58.092C1769.5 58.2227 1769.16 58.4047 1768.88 58.638L1768.2 57.364C1768.59 57.0653 1769.06 56.8367 1769.61 56.678C1770.16 56.5193 1770.74 56.44 1771.36 56.44ZM1771.12 62.824C1771.56 62.824 1771.95 62.726 1772.28 62.53C1772.63 62.3247 1772.87 62.0353 1773.01 61.662V60.794H1771.21C1770.2 60.794 1769.69 61.1253 1769.69 61.788C1769.69 62.1053 1769.82 62.3573 1770.07 62.544C1770.32 62.7307 1770.67 62.824 1771.12 62.824ZM1777.01 53.612H1778.76V64H1777.01V53.612ZM1781.05 53.612H1782.8V64H1781.05V53.612Z" fill="#757575"/>
</svg>
